<?xml version="1.0" encoding="UTF-8"?>
<!DOCTYPE svg PUBLIC "-//W3C//DTD SVG 1.1//EN" "http://www.w3.org/Graphics/SVG/1.1/DTD/svg11.dtd">
<!-- Creator: CorelDRAW 2021 (64-Bit Оценочная версия) -->
<svg xmlns="http://www.w3.org/2000/svg" xml:space="preserve" width="1226px" height="335px" version="1.1" style="shape-rendering:geometricPrecision; text-rendering:geometricPrecision; image-rendering:optimizeQuality; fill-rule:evenodd; clip-rule:evenodd"
viewBox="0 0 1209.82 330.78"
 xmlns:xlink="http://www.w3.org/1999/xlink"
 xmlns:xodm="http://www.corel.com/coreldraw/odm/2003">
 <defs>
  <style type="text/css">
   <![CDATA[
    .fil0 {fill:#4C4C4C;fill-rule:nonzero}
   ]]>
  </style>
 </defs>
 <g id="Слой_x0020_1">
  <metadata id="CorelCorpID_0Corel-Layer"/>
  <path class="fil0" d="M26.57 285.47c0,-3.94 0.68,-7.33 2.03,-10.18 1.36,-2.84 3.14,-5.19 5.33,-7.03 2.19,-1.85 4.71,-3.2 7.55,-4.08 2.84,-0.88 5.74,-1.33 8.7,-1.33 3.4,0 6.44,0.42 9.13,1.23 2.69,0.82 4.61,1.74 5.79,2.77 -0.43,0.91 -0.82,1.86 -1.16,2.86 -0.34,1.01 -0.63,2.05 -0.88,3.14l-0.74 0c-0.43,-0.79 -1.02,-1.59 -1.77,-2.41 -0.73,-0.82 -1.61,-1.57 -2.63,-2.27 -1.03,-0.69 -2.15,-1.27 -3.38,-1.72 -1.23,-0.46 -2.59,-0.69 -4.08,-0.69 -2.78,0 -5.17,0.5 -7.17,1.5 -2.01,1 -3.65,2.38 -4.92,4.13 -1.26,1.76 -2.19,3.83 -2.78,6.23 -0.59,2.39 -0.87,4.97 -0.87,7.76 0,6.24 1.35,10.94 4.07,14.12 2.72,3.18 6.7,4.77 11.95,4.77 1.23,0 2.5,-0.17 3.8,-0.5 1.29,-0.33 2.56,-0.79 3.79,-1.37 1.25,-0.57 2.4,-1.26 3.48,-2.04 1.08,-0.78 2.03,-1.64 2.83,-2.54l0.46 0.27c-0.31,1.45 -0.5,2.94 -0.55,4.46 -1.86,1.44 -4.16,2.68 -6.91,3.71 -2.75,1.03 -5.6,1.54 -8.57,1.54 -2.66,0 -5.33,-0.37 -8.01,-1.13 -2.69,-0.75 -5.11,-2.02 -7.27,-3.81 -2.16,-1.78 -3.91,-4.1 -5.23,-6.95 -1.33,-2.85 -1.99,-6.33 -1.99,-10.44z"/>
  <path class="fil0" d="M103.72 285.47c0,2.54 0.23,4.99 0.7,7.36 0.46,2.35 1.25,4.46 2.36,6.3 1.11,1.85 2.59,3.32 4.44,4.42 1.86,1.07 4.14,1.63 6.85,1.63 2.73,0 5.01,-0.56 6.86,-1.63 1.86,-1.1 3.34,-2.57 4.45,-4.42 1.11,-1.84 1.9,-3.95 2.36,-6.3 0.46,-2.37 0.7,-4.82 0.7,-7.36 0,-2.55 -0.24,-4.99 -0.7,-7.35 -0.46,-2.37 -1.25,-4.47 -2.36,-6.32 -1.11,-1.84 -2.59,-3.31 -4.45,-4.41 -1.85,-1.08 -4.13,-1.63 -6.86,-1.63 -2.71,0 -4.99,0.55 -6.85,1.63 -1.85,1.1 -3.33,2.57 -4.44,4.41 -1.11,1.85 -1.9,3.95 -2.36,6.32 -0.47,2.36 -0.7,4.8 -0.7,7.35zm-8.15 0c0,-4.11 0.67,-7.62 1.99,-10.49 1.32,-2.87 3.07,-5.21 5.24,-6.99 2.15,-1.79 4.58,-3.09 7.27,-3.91 2.68,-0.81 5.36,-1.23 8,-1.23 2.73,0 5.41,0.42 8.07,1.23 2.65,0.82 5.06,2.12 7.22,3.91 2.16,1.78 3.9,4.12 5.24,6.99 1.32,2.87 1.99,6.38 1.99,10.49 0,4.11 -0.67,7.61 -1.99,10.48 -1.34,2.88 -3.08,5.22 -5.24,7 -2.16,1.79 -4.57,3.04 -7.22,3.77 -2.66,0.73 -5.34,1.08 -8.07,1.08 -2.64,0 -5.32,-0.35 -8,-1.08 -2.69,-0.73 -5.12,-1.98 -7.27,-3.77 -2.17,-1.78 -3.92,-4.12 -5.24,-7 -1.32,-2.87 -1.99,-6.37 -1.99,-10.48z"/>
  <path class="fil0" d="M175.09 300.45c0.65,0.73 1.41,1.41 2.31,2.05 0.9,0.63 1.92,1.17 3.06,1.59 1.15,0.42 2.36,0.63 3.66,0.63 1.18,0 2.3,-0.18 3.38,-0.54 1.09,-0.37 2.03,-0.88 2.88,-1.55 0.82,-0.67 1.49,-1.51 1.99,-2.55 0.49,-1.02 0.73,-2.2 0.73,-3.53 0,-1.88 -0.53,-3.31 -1.61,-4.32 -1.09,-0.99 -2.43,-1.82 -4.04,-2.45 -1.61,-0.63 -3.36,-1.19 -5.28,-1.68 -1.91,-0.48 -3.67,-1.17 -5.28,-2.04 -1.6,-0.87 -2.94,-2.04 -4.02,-3.5 -1.08,-1.45 -1.63,-3.44 -1.63,-5.99 0,-2 0.35,-3.82 1.03,-5.49 0.68,-1.67 1.66,-3.1 2.95,-4.32 1.3,-1.21 2.91,-2.16 4.83,-2.85 1.91,-0.7 4.1,-1.06 6.57,-1.06 2.29,0 4.21,0.31 5.79,0.91 1.57,0.61 3.07,1.16 4.49,1.64 -0.49,0.91 -0.95,2.03 -1.39,3.36 -0.43,1.33 -0.71,2.36 -0.83,3.08l-1.11 0c-0.5,-1.45 -1.46,-2.75 -2.87,-3.9 -1.42,-1.14 -3.19,-1.72 -5.28,-1.72 -0.93,0 -1.86,0.14 -2.78,0.46 -0.93,0.29 -1.76,0.75 -2.5,1.35 -0.75,0.61 -1.36,1.4 -1.86,2.36 -0.49,0.97 -0.73,2.12 -0.73,3.46 0,1.93 0.53,3.43 1.61,4.49 1.09,1.06 2.42,1.89 4.04,2.5 1.6,0.6 3.37,1.13 5.28,1.59 1.91,0.45 3.67,1.09 5.28,1.9 1.6,0.82 2.94,1.96 4.02,3.41 1.08,1.45 1.63,3.45 1.63,6 0,1.75 -0.39,3.48 -1.17,5.17 -0.77,1.7 -1.88,3.22 -3.33,4.59 -1.45,1.35 -3.2,2.42 -5.23,3.18 -2.04,0.75 -4.36,1.13 -6.95,1.13 -2.84,0 -5.22,-0.27 -7.13,-0.82 -1.92,-0.55 -3.52,-1.18 -4.82,-1.9 0.37,-0.79 0.77,-1.87 1.17,-3.23 0.4,-1.36 0.59,-2.5 0.59,-3.41l1.12 0c0.3,0.61 0.78,1.28 1.43,2z"/>
  <path class="fil0" d="M233.44 272.16c-0.09,-2.99 -0.29,-5.79 -0.6,-8.39 1.72,0.3 3.11,0.44 4.17,0.44 0.49,0 1.03,-0.04 1.61,-0.13 0.59,-0.09 1.29,-0.19 2.09,-0.31 -0.19,2.41 -0.27,4.83 -0.27,7.26l0.18 0c3.27,-5.45 7.87,-8.17 13.8,-8.17 1.55,0 3.06,0.22 4.54,0.68 1.49,0.45 2.82,1.07 4.03,1.86 1.21,0.78 2.24,1.74 3.11,2.86 0.85,1.12 1.44,2.31 1.75,3.59l0.19 0c1.48,-2.91 3.5,-5.13 6.06,-6.68 2.57,-1.54 5.52,-2.31 8.85,-2.31 2.04,0 3.92,0.28 5.65,0.81 1.73,0.54 3.22,1.4 4.49,2.55 1.27,1.15 2.26,2.63 2.97,4.44 0.71,1.83 1.07,4.01 1.07,6.54 0,1.03 -0.04,2.16 -0.1,3.37 -0.06,1.21 -0.13,2.61 -0.18,4.22 -0.07,1.6 -0.12,3.42 -0.19,5.45 -0.06,2.02 -0.09,4.37 -0.09,7.04 0,1.63 0.01,3.2 0.05,4.71 0.03,1.51 0.11,3.15 0.23,4.91 -0.69,-0.11 -1.36,-0.18 -2.05,-0.18l-1.94 0 -2.04 0c-0.68,0 -1.36,0.07 -2.03,0.18 0.19,-1.52 0.38,-4.57 0.6,-9.17 0.21,-4.6 0.32,-11.02 0.32,-19.25 0,-1.51 -0.17,-2.94 -0.51,-4.27 -0.33,-1.34 -0.88,-2.48 -1.61,-3.46 -0.75,-0.97 -1.74,-1.73 -2.97,-2.31 -1.24,-0.57 -2.78,-0.86 -4.64,-0.86 -2.21,0 -4.1,0.43 -5.65,1.27 -1.54,0.84 -2.74,1.85 -3.61,3 -0.49,0.66 -0.88,1.32 -1.15,1.99 -0.29,0.67 -0.5,1.68 -0.65,3.05 -0.16,1.36 -0.27,3.27 -0.32,5.71 -0.07,2.46 -0.1,5.84 -0.1,10.13 0,2.6 0.05,4.98 0.14,7.13 0.09,2.15 0.2,4.5 0.32,7.04 -1.42,-0.11 -2.78,-0.18 -4.08,-0.18 -1.29,0 -2.64,0.07 -4.07,0.18 0.32,-3.33 0.53,-6.72 0.65,-10.16 0.12,-3.46 0.19,-6.85 0.19,-10.18 0,-2.84 -0.01,-5.07 -0.05,-6.68 -0.03,-1.6 -0.11,-2.87 -0.23,-3.81 -0.12,-0.94 -0.3,-1.72 -0.51,-2.32 -0.21,-0.6 -0.51,-1.26 -0.88,-2 -0.68,-1.14 -1.74,-2.13 -3.2,-2.94 -1.45,-0.83 -2.95,-1.23 -4.48,-1.23 -4.08,0 -7.08,1.3 -9,3.9 -1.91,2.61 -2.86,6.28 -2.86,10.99l0 7.73c0,2.71 0.04,5.58 0.14,8.57 0.09,3 0.29,5.71 0.6,8.13 -1.42,-0.11 -2.81,-0.18 -4.17,-0.18 -1.37,0 -2.75,0.07 -4.17,0.18 0.31,-2.42 0.51,-5.13 0.6,-8.13 0.09,-2.99 0.15,-5.86 0.15,-8.57l0 -9.45c0,-2.73 -0.06,-5.58 -0.15,-8.59z"/>
  <path class="fil0" d="M351.4 265.76c-2.28,0 -4.21,0.51 -5.79,1.55 -1.57,1.03 -2.87,2.31 -3.89,3.85 -1.01,1.55 -1.79,3.25 -2.32,5.1 -0.52,1.84 -0.84,3.58 -0.96,5.21 1.91,0.07 3.9,0.13 5.97,0.19 2.07,0.06 4.09,0.09 6.07,0.09 2.03,0 4.1,-0.03 6.2,-0.09 2.1,-0.06 4.14,-0.12 6.12,-0.19 0,-1.63 -0.15,-3.36 -0.43,-5.17 -0.27,-1.82 -0.83,-3.51 -1.66,-5.09 -0.84,-1.57 -1.99,-2.87 -3.47,-3.9 -1.48,-1.04 -3.43,-1.55 -5.84,-1.55zm-21.39 20.98c0,-7.45 1.8,-13.29 5.41,-17.52 3.62,-4.25 8.87,-6.36 15.79,-6.36 3.28,0 6.1,0.5 8.48,1.49 2.37,1 4.37,2.33 5.98,4 1.6,1.67 2.79,3.61 3.56,5.86 0.77,2.24 1.16,4.63 1.16,7.17 0,0.61 -0.01,1.2 -0.04,1.77 -0.04,0.58 -0.08,1.17 -0.15,1.78 -3.33,-0.07 -6.64,-0.12 -9.9,-0.19 -3.29,-0.06 -6.59,-0.09 -9.92,-0.09 -2.04,0 -4.06,0.03 -6.06,0.09 -2.01,0.07 -4.04,0.12 -6.07,0.19 -0.07,0.3 -0.09,0.76 -0.09,1.35l0 1.18c0,2.37 0.36,4.57 1.06,6.64 0.71,2.06 1.74,3.83 3.11,5.31 1.35,1.49 3.02,2.66 4.99,3.54 1.98,0.88 4.26,1.32 6.86,1.32 1.23,0 2.5,-0.17 3.79,-0.5 1.3,-0.33 2.57,-0.79 3.8,-1.36 1.24,-0.58 2.39,-1.26 3.48,-2.05 1.07,-0.79 2.02,-1.63 2.83,-2.54l0.45 0.27 -0.55 4.45c-1.85,1.46 -4.15,2.7 -6.9,3.73 -2.75,1.03 -5.61,1.54 -8.57,1.54 -3.33,0 -6.37,-0.5 -9.13,-1.5 -2.74,-1 -5.12,-2.45 -7.12,-4.36 -2.01,-1.9 -3.55,-4.16 -4.64,-6.77 -1.08,-2.59 -1.61,-5.42 -1.61,-8.44z"/>
  <path class="fil0" d="M411.88 251.6c-0.19,2.3 -0.32,4.56 -0.42,6.77 -0.09,2.2 -0.2,4.43 -0.32,6.67 0.68,0 1.94,-0.01 3.8,-0.05 1.85,-0.03 3.86,-0.11 6.02,-0.23 -0.06,0.19 -0.09,0.52 -0.09,1l0 0.91 0 1c0,0.42 0.03,0.73 0.09,0.9 -0.8,-0.05 -1.64,-0.1 -2.51,-0.13 -0.85,-0.03 -1.79,-0.04 -2.78,-0.04l-4.53 0c-0.06,0.24 -0.13,1.21 -0.23,2.91 -0.09,1.69 -0.17,3.7 -0.23,6.04 -0.06,2.32 -0.11,4.75 -0.14,7.3 -0.03,2.55 -0.05,4.81 -0.05,6.82 0,1.68 0.05,3.35 0.15,4.99 0.09,1.63 0.38,3.1 0.88,4.4 0.49,1.3 1.23,2.35 2.22,3.14 0.98,0.78 2.4,1.17 4.26,1.17 0.49,0 1.15,-0.05 1.99,-0.17 0.83,-0.13 1.56,-0.28 2.18,-0.46l0 2.18c-1.06,0.18 -2.22,0.41 -3.48,0.68 -1.27,0.27 -2.48,0.41 -3.66,0.41 -3.89,0 -6.76,-0.95 -8.61,-2.81 -1.85,-1.88 -2.78,-4.64 -2.78,-8.26 0,-1.64 0.03,-3.42 0.09,-5.33 0.06,-1.9 0.14,-3.99 0.24,-6.26 0.09,-2.27 0.16,-4.78 0.22,-7.54 0.07,-2.76 0.1,-5.82 0.1,-9.21l-2.97 0c-0.49,0 -1.01,0.01 -1.58,0.04 -0.54,0.03 -1.13,0.08 -1.75,0.13 0.06,-0.35 0.11,-0.7 0.14,-1.03 0.02,-0.34 0.05,-0.69 0.05,-1.06 0,-0.3 -0.03,-0.6 -0.05,-0.9 -0.03,-0.3 -0.08,-0.61 -0.14,-0.91 2.78,0.18 4.82,0.28 6.11,0.28 -0.05,-1.21 -0.11,-2.72 -0.13,-4.55 -0.03,-1.81 -0.11,-3.69 -0.24,-5.62l7.69 -3.18 0.46 0z"/>
  <path class="fil0" d="M454.96 280.75c0,-2.73 -0.05,-5.59 -0.15,-8.58 -0.09,-3 -0.29,-5.8 -0.6,-8.4 1.74,0.3 3.13,0.44 4.17,0.44 1.06,0 2.45,-0.14 4.17,-0.44 -0.31,2.6 -0.51,5.4 -0.6,8.4 -0.09,2.99 -0.13,5.85 -0.13,8.58l0 9.44c0,2.72 0.04,5.59 0.13,8.58 0.09,3 0.29,5.7 0.6,8.13 -1.42,-0.12 -2.81,-0.18 -4.17,-0.18 -1.36,0 -2.75,0.06 -4.17,0.18 0.31,-2.43 0.51,-5.13 0.6,-8.13 0.1,-2.99 0.15,-5.86 0.15,-8.58l0 -9.44zm-1.31 -32.79c0,-1.27 0.47,-2.36 1.39,-3.27 0.94,-0.9 2.05,-1.35 3.34,-1.35 1.3,0 2.41,0.45 3.34,1.35 0.92,0.91 1.39,2 1.39,3.27 0,1.28 -0.47,2.37 -1.39,3.27 -0.93,0.91 -2.04,1.37 -3.34,1.37 -1.29,0 -2.4,-0.46 -3.34,-1.37 -0.92,-0.9 -1.39,-1.99 -1.39,-3.27z"/>
  <path class="fil0" d="M533.22 284.56c0,-2.3 -0.24,-4.52 -0.74,-6.67 -0.49,-2.16 -1.28,-4.06 -2.36,-5.72 -1.09,-1.67 -2.45,-3 -4.12,-4 -1.67,-1 -3.7,-1.5 -6.12,-1.5 -1.47,0 -3.01,0.29 -4.58,0.87 -1.58,0.57 -3.01,1.6 -4.31,3.08 -1.29,1.49 -2.35,3.5 -3.15,6.04 -0.8,2.54 -1.2,5.81 -1.2,9.81 0,2.6 0.26,5 0.79,7.22 0.52,2.21 1.29,4.12 2.31,5.76 1.03,1.63 2.32,2.92 3.9,3.87 1.56,0.93 3.38,1.4 5.41,1.4 2.35,0 4.4,-0.57 6.16,-1.73 1.77,-1.14 3.25,-2.67 4.45,-4.57 1.21,-1.92 2.1,-4.09 2.69,-6.51 0.58,-2.41 0.87,-4.87 0.87,-7.35zm6.85 20.35c0,1.93 0.03,4.09 0.06,6.49 0.02,2.39 0.08,4.76 0.13,7.13 0.07,2.35 0.15,4.61 0.24,6.76 0.08,2.15 0.2,3.98 0.32,5.49 -1.72,-0.3 -3.11,-0.45 -4.17,-0.45 -1.05,0 -2.44,0.15 -4.17,0.45 0.12,-1.51 0.24,-3.34 0.32,-5.49 0.1,-2.15 0.18,-4.41 0.24,-6.76 0.06,-2.37 0.11,-4.74 0.14,-7.13 0.02,-2.4 0.04,-4.56 0.04,-6.49l0 -6.82 -0.18 0c-1.79,3.45 -4.01,5.94 -6.63,7.45 -2.62,1.51 -5.45,2.27 -8.47,2.27 -2.28,0 -4.58,-0.35 -6.9,-1.05 -2.32,-0.69 -4.4,-1.91 -6.25,-3.63 -1.85,-1.72 -3.36,-4.01 -4.54,-6.85 -1.18,-2.85 -1.76,-6.36 -1.76,-10.54 0,-3.99 0.58,-7.43 1.76,-10.31 1.18,-2.88 2.69,-5.23 4.54,-7.08 1.85,-1.84 3.93,-3.22 6.25,-4.14 2.32,-0.89 4.62,-1.35 6.9,-1.35 4.2,0 7.5,0.93 9.91,2.81 2.41,1.88 4.14,4.21 5.19,6.99l0.18 0c0,-1.45 -0.06,-2.9 -0.18,-4.35 -0.13,-1.46 -0.32,-2.97 -0.56,-4.54 1.73,0.3 3.12,0.44 4.17,0.44 1.06,0 2.45,-0.14 4.17,-0.44 -0.12,1.57 -0.24,3.45 -0.32,5.63 -0.09,2.18 -0.17,4.45 -0.24,6.86 -0.05,2.39 -0.11,4.79 -0.13,7.21 -0.03,2.42 -0.06,4.66 -0.06,6.72l0 14.72z"/>
  <path class="fil0" d="M576.39 293.19c0,-3.22 0.04,-5.95 0.14,-8.22 0.09,-2.27 0.13,-4.53 0.13,-6.77 0,-2.11 -0.01,-4.41 -0.04,-6.9 -0.04,-2.48 -0.08,-5 -0.13,-7.53 1.53,0.3 2.83,0.44 3.88,0.44 0.99,0 2.25,-0.14 3.8,-0.44 -0.31,3.62 -0.55,7.61 -0.7,11.94 -0.15,4.33 -0.22,8.76 -0.22,13.3 0,3.15 0.27,5.55 0.83,7.22 0.56,1.67 1.23,2.92 2.03,3.77 0.86,0.97 1.96,1.77 3.29,2.4 1.33,0.64 2.89,0.96 4.68,0.96 2.6,0 4.75,-0.56 6.49,-1.68 1.72,-1.12 2.99,-2.5 3.79,-4.13 0.43,-1.04 0.78,-1.9 1.02,-2.64 0.25,-0.72 0.44,-1.69 0.6,-2.9 0.16,-1.21 0.25,-2.85 0.28,-4.91 0.03,-2.05 0.04,-4.86 0.04,-8.45l0 -7.62c0,-1.33 -0.01,-2.6 -0.04,-3.81 -0.03,-1.22 -0.08,-2.36 -0.15,-3.45 0.68,0.12 1.34,0.22 1.95,0.31 0.62,0.1 1.27,0.13 1.95,0.13 0.67,0 1.33,-0.03 1.94,-0.13 0.63,-0.09 1.24,-0.19 1.86,-0.31 -0.31,4.71 -0.5,9.27 -0.56,13.66 -0.06,4.39 -0.09,9.04 -0.09,13.94 0,2.73 0.03,5.4 0.09,8 0.06,2.6 0.16,5.11 0.28,7.53 -1.23,-0.12 -2.45,-0.18 -3.61,-0.18 -1.17,0 -2.38,0.06 -3.62,0.18 0.07,-0.55 0.11,-1.12 0.15,-1.73 0.02,-0.6 0.04,-1.23 0.04,-1.9l0 -3.9 -0.19 0c-1.6,2.9 -3.66,5.03 -6.2,6.39 -2.54,1.37 -5.28,2.05 -8.25,2.05 -4.81,0 -8.59,-1.26 -11.34,-3.77 -2.75,-2.51 -4.12,-6.13 -4.12,-10.85z"/>
  <path class="fil0" d="M668.73 265.76c-2.28,0 -4.21,0.51 -5.79,1.55 -1.57,1.03 -2.87,2.31 -3.89,3.85 -1.01,1.55 -1.79,3.25 -2.31,5.1 -0.53,1.84 -0.85,3.58 -0.97,5.21 1.91,0.07 3.9,0.13 5.97,0.19 2.07,0.06 4.09,0.09 6.07,0.09 2.03,0 4.1,-0.03 6.21,-0.09 2.1,-0.06 4.13,-0.12 6.11,-0.19 0,-1.63 -0.15,-3.36 -0.42,-5.17 -0.28,-1.82 -0.84,-3.51 -1.67,-5.09 -0.83,-1.57 -1.99,-2.87 -3.47,-3.9 -1.48,-1.04 -3.42,-1.55 -5.84,-1.55zm-21.39 20.98c0,-7.45 1.8,-13.29 5.42,-17.52 3.61,-4.25 8.87,-6.36 15.78,-6.36 3.28,0 6.11,0.5 8.49,1.49 2.38,1 4.37,2.33 5.97,4 1.6,1.67 2.79,3.61 3.57,5.86 0.76,2.24 1.15,4.63 1.15,7.17 0,0.61 -0.01,1.2 -0.04,1.77 -0.03,0.58 -0.08,1.17 -0.15,1.78 -3.33,-0.07 -6.63,-0.12 -9.9,-0.19 -3.28,-0.06 -6.58,-0.09 -9.92,-0.09 -2.03,0 -4.06,0.03 -6.06,0.09 -2.01,0.07 -4.03,0.12 -6.07,0.19 -0.07,0.3 -0.09,0.76 -0.09,1.35l0 1.18c0,2.37 0.36,4.57 1.07,6.64 0.7,2.06 1.73,3.83 3.1,5.31 1.36,1.49 3.03,2.66 5,3.54 1.97,0.88 4.26,1.32 6.85,1.32 1.24,0 2.51,-0.17 3.79,-0.5 1.31,-0.33 2.57,-0.79 3.81,-1.36 1.23,-0.58 2.39,-1.26 3.48,-2.05 1.07,-0.79 2.01,-1.63 2.82,-2.54l0.46 0.27 -0.56 4.45c-1.84,1.46 -4.15,2.7 -6.89,3.73 -2.76,1.03 -5.61,1.54 -8.58,1.54 -3.33,0 -6.36,-0.5 -9.12,-1.5 -2.75,-1 -5.13,-2.45 -7.13,-4.36 -2.01,-1.9 -3.55,-4.16 -4.64,-6.77 -1.07,-2.59 -1.61,-5.42 -1.61,-8.44z"/>
  <path class="fil0" d="M721.76 300.45c0.65,0.73 1.42,1.41 2.32,2.05 0.9,0.63 1.91,1.17 3.05,1.59 1.15,0.42 2.36,0.63 3.66,0.63 1.18,0 2.3,-0.18 3.38,-0.54 1.09,-0.37 2.03,-0.88 2.88,-1.55 0.83,-0.67 1.49,-1.51 1.99,-2.55 0.49,-1.02 0.74,-2.2 0.74,-3.53 0,-1.88 -0.54,-3.31 -1.62,-4.32 -1.09,-0.99 -2.43,-1.82 -4.03,-2.45 -1.62,-0.63 -3.37,-1.19 -5.28,-1.68 -1.92,-0.48 -3.67,-1.17 -5.29,-2.04 -1.6,-0.87 -2.94,-2.04 -4.02,-3.5 -1.08,-1.45 -1.62,-3.44 -1.62,-5.99 0,-2 0.34,-3.82 1.02,-5.49 0.68,-1.67 1.67,-3.1 2.96,-4.32 1.3,-1.21 2.9,-2.16 4.82,-2.85 1.91,-0.7 4.11,-1.06 6.57,-1.06 2.29,0 4.22,0.31 5.8,0.91 1.56,0.61 3.07,1.16 4.49,1.64 -0.5,0.91 -0.96,2.03 -1.39,3.36 -0.44,1.33 -0.71,2.36 -0.84,3.08l-1.11 0c-0.5,-1.45 -1.45,-2.75 -2.87,-3.9 -1.42,-1.14 -3.18,-1.72 -5.28,-1.72 -0.93,0 -1.85,0.14 -2.78,0.46 -0.93,0.29 -1.75,0.75 -2.5,1.35 -0.74,0.61 -1.36,1.4 -1.86,2.36 -0.48,0.97 -0.73,2.12 -0.73,3.46 0,1.93 0.54,3.43 1.61,4.49 1.09,1.06 2.43,1.89 4.04,2.5 1.6,0.6 3.37,1.13 5.28,1.59 1.91,0.45 3.67,1.09 5.28,1.9 1.6,0.82 2.95,1.96 4.03,3.41 1.07,1.45 1.62,3.45 1.62,6 0,1.75 -0.39,3.48 -1.16,5.17 -0.78,1.7 -1.89,3.22 -3.33,4.59 -1.46,1.35 -3.2,2.42 -5.24,3.18 -2.03,0.75 -4.36,1.13 -6.95,1.13 -2.83,0 -5.21,-0.27 -7.13,-0.82 -1.92,-0.55 -3.52,-1.18 -4.82,-1.9 0.38,-0.79 0.76,-1.87 1.17,-3.23 0.4,-1.36 0.6,-2.5 0.6,-3.41l1.11 0c0.31,0.61 0.79,1.28 1.43,2z"/>
  <path class="fil0" d="M829.21 272.16c-0.09,-2.99 -0.29,-5.79 -0.6,-8.39 1.72,0.3 3.11,0.44 4.16,0.44 0.5,0 1.04,-0.04 1.62,-0.13 0.59,-0.09 1.29,-0.19 2.09,-0.31 -0.19,2.41 -0.28,4.83 -0.28,7.26l0.19 0c3.27,-5.45 7.87,-8.17 13.8,-8.17 1.54,0 3.05,0.22 4.53,0.68 1.49,0.45 2.83,1.07 4.04,1.86 1.2,0.78 2.23,1.74 3.1,2.86 0.86,1.12 1.45,2.31 1.76,3.59l0.19 0c1.48,-2.91 3.5,-5.13 6.06,-6.68 2.56,-1.54 5.51,-2.31 8.84,-2.31 2.04,0 3.93,0.28 5.65,0.81 1.74,0.54 3.23,1.4 4.49,2.55 1.27,1.15 2.26,2.63 2.97,4.44 0.71,1.83 1.07,4.01 1.07,6.54 0,1.03 -0.03,2.16 -0.1,3.37 -0.05,1.21 -0.12,2.61 -0.18,4.22 -0.06,1.6 -0.12,3.42 -0.19,5.45 -0.05,2.02 -0.08,4.37 -0.08,7.04 0,1.63 0,3.2 0.04,4.71 0.03,1.51 0.11,3.15 0.23,4.91 -0.69,-0.11 -1.36,-0.18 -2.04,-0.18l-1.95 0 -2.03 0c-0.68,0 -1.36,0.07 -2.04,0.18 0.19,-1.52 0.38,-4.57 0.6,-9.17 0.21,-4.6 0.33,-11.02 0.33,-19.25 0,-1.51 -0.17,-2.94 -0.52,-4.27 -0.33,-1.34 -0.88,-2.48 -1.61,-3.46 -0.74,-0.97 -1.73,-1.73 -2.97,-2.31 -1.23,-0.57 -2.78,-0.86 -4.63,-0.86 -2.22,0 -4.11,0.43 -5.65,1.27 -1.55,0.84 -2.75,1.85 -3.61,3 -0.5,0.66 -0.88,1.32 -1.16,1.99 -0.28,0.67 -0.49,1.68 -0.65,3.05 -0.15,1.36 -0.26,3.27 -0.32,5.71 -0.06,2.46 -0.1,5.84 -0.1,10.13 0,2.6 0.06,4.98 0.15,7.13 0.09,2.15 0.2,4.5 0.32,7.04 -1.42,-0.11 -2.78,-0.18 -4.08,-0.18 -1.29,0 -2.65,0.07 -4.07,0.18 0.31,-3.33 0.52,-6.72 0.64,-10.16 0.13,-3.46 0.19,-6.85 0.19,-10.18 0,-2.84 -0.01,-5.07 -0.04,-6.68 -0.04,-1.6 -0.11,-2.87 -0.23,-3.81 -0.13,-0.94 -0.31,-1.72 -0.52,-2.32 -0.21,-0.6 -0.51,-1.26 -0.87,-2 -0.68,-1.14 -1.75,-2.13 -3.21,-2.94 -1.44,-0.83 -2.94,-1.23 -4.48,-1.23 -4.08,0 -7.08,1.3 -8.99,3.9 -1.91,2.61 -2.87,6.28 -2.87,10.99l0 7.73c0,2.71 0.05,5.58 0.15,8.57 0.08,3 0.28,5.71 0.59,8.13 -1.42,-0.11 -2.81,-0.18 -4.17,-0.18 -1.36,0 -2.74,0.07 -4.16,0.18 0.31,-2.42 0.51,-5.13 0.6,-8.13 0.09,-2.99 0.14,-5.86 0.14,-8.57l0 -9.45c0,-2.73 -0.05,-5.58 -0.14,-8.59z"/>
  <path class="fil0" d="M953.37 284.29c-1.04,0.37 -2.27,0.67 -3.66,0.91 -1.39,0.23 -2.79,0.5 -4.21,0.77 -1.42,0.26 -2.82,0.62 -4.21,1.04 -1.39,0.42 -2.63,1 -3.71,1.73 -1.08,0.73 -1.94,1.63 -2.6,2.72 -0.64,1.09 -0.96,2.48 -0.96,4.18 0,2.85 0.83,4.99 2.5,6.45 1.66,1.46 3.51,2.18 5.56,2.18 2.34,0 4.49,-0.64 6.43,-1.92 1.95,-1.26 3.44,-2.74 4.49,-4.44l0.37 -13.62zm-22.88 -16.17c2.78,-2.05 5.34,-3.44 7.69,-4.18 2.35,-0.72 4.75,-1.09 7.23,-1.09 2.21,0 4.26,0.32 6.11,0.96 1.85,0.63 3.43,1.55 4.72,2.72 1.3,1.18 2.31,2.6 3.06,4.27 0.74,1.67 1.11,3.49 1.11,5.49 0,3.46 -0.06,6.9 -0.18,10.31 -0.13,3.43 -0.19,7.04 -0.19,10.85 0,0.73 0.01,1.5 0.05,2.33 0.03,0.81 0.16,1.53 0.42,2.17 0.24,0.64 0.6,1.16 1.06,1.6 0.46,0.42 1.16,0.63 2.09,0.63 0.3,0 0.63,-0.01 0.96,-0.04 0.35,-0.04 0.67,-0.15 0.98,-0.33l0 2c-0.68,0.3 -1.53,0.55 -2.55,0.73 -1.02,0.17 -2.14,0.27 -3.39,0.27 -1.96,0 -3.48,-0.5 -4.53,-1.5 -1.05,-1 -1.67,-2.29 -1.85,-3.85 -2.22,2.17 -4.42,3.77 -6.58,4.81 -2.16,1.02 -4.81,1.54 -7.96,1.54 -1.54,0 -3.06,-0.22 -4.55,-0.64 -1.48,-0.42 -2.79,-1.11 -3.93,-2.09 -1.15,-0.97 -2.07,-2.14 -2.78,-3.49 -0.7,-1.37 -1.06,-2.93 -1.06,-4.68 0,-3.63 1.16,-6.45 3.47,-8.44 2.31,-2 5.52,-3.34 9.58,-4 3.34,-0.55 5.95,-1.02 7.83,-1.4 1.89,-0.4 3.28,-0.8 4.17,-1.24 0.9,-0.42 1.44,-0.92 1.63,-1.49 0.18,-0.58 0.27,-1.32 0.27,-2.22 0,-1.51 -0.19,-2.97 -0.56,-4.37 -0.36,-1.39 -0.95,-2.6 -1.75,-3.63 -0.81,-1.03 -1.86,-1.86 -3.16,-2.5 -1.29,-0.63 -2.87,-0.95 -4.71,-0.95 -2.48,0 -4.78,0.54 -6.91,1.64 -2.13,1.08 -3.72,2.6 -4.77,4.54l-1.02 0 0 -4.73z"/>
  <path class="fil0" d="M1018.62 270.21c-0.89,-0.3 -1.8,-0.45 -2.73,-0.45 -1.48,0 -2.81,0.33 -3.98,1 -1.17,0.67 -2.16,1.55 -2.97,2.68 -0.8,1.12 -1.41,2.44 -1.85,3.99 -0.43,1.54 -0.65,3.2 -0.65,4.96l0 9.98c0,4.06 0.02,7.16 0.06,9.31 0.02,2.14 0.13,3.89 0.32,5.22 -1.24,-0.12 -2.47,-0.17 -3.71,-0.17 -1.36,0 -2.65,0.05 -3.89,0.17 0.18,-2.05 0.29,-4.85 0.33,-8.4 0.03,-3.54 0.04,-7.89 0.04,-13.03l0 -2.9c0,-2.37 -0.01,-5.08 -0.04,-8.18 -0.04,-3.09 -0.15,-6.63 -0.33,-10.63 0.68,0.13 1.32,0.23 1.95,0.33 0.61,0.09 1.26,0.13 1.94,0.13 0.56,0 1.14,-0.04 1.76,-0.13 0.61,-0.1 1.27,-0.2 1.95,-0.33 -0.25,2.18 -0.39,3.91 -0.41,5.19 -0.05,1.26 -0.06,2.48 -0.06,3.62l0.19 0.09c3.64,-6.54 7.71,-9.81 12.23,-9.81 0.55,0 1.02,0.04 1.43,0.09 0.4,0.07 0.92,0.22 1.53,0.46 -0.32,0.73 -0.49,1.83 -0.56,3.31 -0.05,1.49 -0.09,2.84 -0.09,4.05l-0.64 0.45c-0.31,-0.36 -0.92,-0.7 -1.82,-1z"/>
  <path class="fil0" d="M1055.72 280.75c0,-2.73 -0.04,-5.59 -0.14,-8.58 -0.09,-3 -0.29,-5.8 -0.6,-8.4 1.73,0.3 3.12,0.44 4.17,0.44 1.05,0 2.44,-0.14 4.16,-0.44 -0.31,2.6 -0.51,5.4 -0.59,8.4 -0.09,2.99 -0.14,5.85 -0.14,8.58l0 9.44c0,2.72 0.05,5.59 0.14,8.58 0.08,3 0.28,5.7 0.59,8.13 -1.42,-0.12 -2.81,-0.18 -4.16,-0.18 -1.36,0 -2.75,0.06 -4.17,0.18 0.31,-2.43 0.51,-5.13 0.6,-8.13 0.1,-2.99 0.14,-5.86 0.14,-8.58l0 -9.44zm-1.3 -32.79c0,-1.27 0.47,-2.36 1.39,-3.27 0.93,-0.9 2.05,-1.35 3.34,-1.35 1.3,0 2.41,0.45 3.33,1.35 0.92,0.91 1.39,2 1.39,3.27 0,1.28 -0.47,2.37 -1.39,3.27 -0.92,0.91 -2.03,1.37 -3.33,1.37 -1.29,0 -2.41,-0.46 -3.34,-1.37 -0.92,-0.9 -1.39,-1.99 -1.39,-3.27z"/>
  <path class="fil0" d="M1129.91 271.08c-1.79,-2.34 -4.26,-3.51 -7.4,-3.51 -4.33,0 -7.5,1.31 -9.5,3.92 -2.01,2.6 -3.01,6.26 -3.01,10.98l0 7.72c0,2.72 0.04,5.59 0.13,8.58 0.1,3 0.3,5.71 0.6,8.13 -1.41,-0.12 -2.8,-0.18 -4.15,-0.18 -1.37,0 -2.76,0.06 -4.17,0.18 0.3,-2.42 0.5,-5.13 0.6,-8.13 0.09,-2.99 0.13,-5.86 0.13,-8.58l0 -9.44c0,-2.73 -0.04,-5.59 -0.13,-8.58 -0.1,-3 -0.3,-5.8 -0.6,-8.4 1.72,0.3 3.11,0.45 4.17,0.45 0.48,0 1.03,-0.05 1.61,-0.14 0.59,-0.09 1.29,-0.19 2.09,-0.31 -0.19,2.41 -0.28,4.84 -0.28,7.26l0.19 0c1.72,-2.6 3.79,-4.61 6.2,-6.03 2.4,-1.43 5.28,-2.14 8.62,-2.14 1.72,0 3.47,0.25 5.22,0.72 1.77,0.49 3.35,1.32 4.77,2.5 1.43,1.18 2.58,2.78 3.49,4.82 0.88,2.02 1.34,4.61 1.34,7.76 0,2.6 -0.07,5.28 -0.19,8.04 -0.12,2.76 -0.19,5.67 -0.19,8.76l0 5.9c0,0.97 0.03,1.92 0.05,2.86 0.03,0.94 0.07,1.83 0.14,2.68 -1.23,-0.12 -2.53,-0.18 -3.89,-0.18 -1.3,0 -2.57,0.06 -3.8,0.18 0.12,-3.15 0.26,-6.38 0.42,-9.72 0.16,-3.32 0.23,-6.75 0.23,-10.26l0 -5.54c0,-4.53 -0.9,-7.97 -2.69,-10.3z"/>
  <path class="fil0" d="M1178.13 300.45c0.64,0.73 1.41,1.41 2.31,2.05 0.9,0.63 1.91,1.17 3.06,1.59 1.14,0.42 2.35,0.63 3.65,0.63 1.18,0 2.31,-0.18 3.38,-0.54 1.09,-0.37 2.04,-0.88 2.88,-1.55 0.83,-0.67 1.49,-1.51 1.99,-2.55 0.49,-1.02 0.74,-2.2 0.74,-3.53 0,-1.88 -0.54,-3.31 -1.62,-4.32 -1.08,-0.99 -2.43,-1.82 -4.03,-2.45 -1.61,-0.63 -3.37,-1.19 -5.28,-1.68 -1.92,-0.48 -3.67,-1.17 -5.28,-2.04 -1.61,-0.87 -2.95,-2.04 -4.03,-3.5 -1.08,-1.45 -1.62,-3.44 -1.62,-5.99 0,-2 0.34,-3.82 1.02,-5.49 0.68,-1.67 1.67,-3.1 2.96,-4.32 1.3,-1.21 2.9,-2.16 4.82,-2.85 1.92,-0.7 4.11,-1.06 6.57,-1.06 2.3,0 4.22,0.31 5.8,0.91 1.58,0.61 3.07,1.16 4.49,1.64 -0.5,0.91 -0.96,2.03 -1.39,3.36 -0.43,1.33 -0.71,2.36 -0.83,3.08l-1.12 0c-0.5,-1.45 -1.45,-2.75 -2.86,-3.9 -1.43,-1.14 -3.18,-1.72 -5.29,-1.72 -0.93,0 -1.85,0.14 -2.78,0.46 -0.93,0.29 -1.75,0.75 -2.5,1.35 -0.74,0.61 -1.35,1.4 -1.85,2.36 -0.49,0.97 -0.74,2.12 -0.74,3.46 0,1.93 0.54,3.43 1.61,4.49 1.09,1.06 2.43,1.89 4.04,2.5 1.6,0.6 3.37,1.13 5.28,1.59 1.91,0.45 3.67,1.09 5.28,1.9 1.6,0.82 2.95,1.96 4.03,3.41 1.08,1.45 1.62,3.45 1.62,6 0,1.75 -0.39,3.48 -1.16,5.17 -0.78,1.7 -1.89,3.22 -3.33,4.59 -1.46,1.35 -3.2,2.42 -5.24,3.18 -2.03,0.75 -4.36,1.13 -6.95,1.13 -2.83,0 -5.21,-0.27 -7.12,-0.82 -1.93,-0.55 -3.53,-1.18 -4.83,-1.9 0.38,-0.79 0.77,-1.87 1.17,-3.23 0.4,-1.36 0.6,-2.5 0.6,-3.41l1.11 0c0.31,0.61 0.79,1.28 1.44,2z"/>
  <path class="fil0" d="M43.59 123.78l0 71.35 22.55 0c7.75,0 14.65,-1.52 20.69,-4.56 6.05,-3.04 10.77,-7.35 14.19,-12.93 3.41,-5.6 5.11,-11.8 5.11,-18.64 0,-12.77 -4.3,-21.82 -12.91,-27.18 -8.59,-5.36 -20.72,-8.04 -36.38,-8.04l-13.25 0zm0 -70.32l0 61.66 9.74 0c6.74,0 12.32,-0.32 16.77,-0.97 4.44,-0.64 8.84,-1.96 13.17,-3.93 5.72,-2.74 10.19,-6.53 13.4,-11.4 3.2,-4.86 4.81,-10.48 4.81,-16.86 0,-7.08 -1.56,-12.72 -4.7,-16.98 -3.13,-4.26 -7.67,-7.24 -13.63,-8.95 -5.96,-1.71 -13.3,-2.57 -22.03,-2.57l-17.53 0zm-43.59 150.33l22.67 0 0 -158.99 46.62 0c11.77,0 21.55,1.03 29.35,3.08 7.78,2.04 13.69,5.46 17.72,10.21 4.04,4.74 6.05,11.07 6.05,18.96 0,5.25 -0.94,10.09 -2.79,14.53 -1.86,4.45 -4.51,8.46 -7.91,12.03 -3.41,3.57 -7.4,6.58 -11.97,9.01 -4.12,2.12 -9.11,4.02 -15,5.69 2.25,0 4.61,0.21 7.09,0.64 2.48,0.41 5.15,1.03 8.02,1.87 5.27,1.37 9.96,3.5 14.08,6.39 4.1,2.65 7.52,6.32 10.28,10.99 2.74,4.67 4.12,10.27 4.12,16.81 0,16.49 -7.12,29.63 -21.39,39.43 -4.1,2.66 -8.98,4.75 -14.64,6.27 -5.11,1.22 -10.58,2.09 -16.39,2.62l-19.3 0.46 -56.61 0z"/>
  <path class="fil0" d="M204.04 204.47l0 -159.67 6.05 0.46 4.41 0.23 4.07 -0.23 6.39 -0.46 0 159.67 -4.3 -0.34c-1.39,0 -2.37,-0.08 -2.9,-0.22l-3.26 -0.13 -3.6 0.13 -3.03 0.22 -3.83 0.34z"/>
  <path class="fil0" d="M448.41 122.93c0,-7.67 -0.39,-14.16 -1.15,-19.48 -0.78,-5.31 -2.32,-10.75 -4.61,-16.33 -2.28,-5.58 -5.36,-10.76 -9.24,-15.55 -3.86,-4.78 -8.38,-8.82 -13.54,-12.13 -5.14,-3.29 -10.9,-5.86 -17.25,-7.69 -6.36,-1.82 -12.6,-2.73 -18.72,-2.73 -10.31,0 -19.65,1.86 -28.02,5.58 -8.36,3.72 -15.46,9.01 -21.27,15.88 -5.82,6.88 -10.23,15.19 -13.25,24.94 -3.03,9.77 -4.54,20.42 -4.54,31.96 0,11.3 1.61,21.42 4.83,30.34 3.21,8.93 7.87,16.53 13.95,22.83 6.08,6.31 13.12,11.03 21.1,14.18 7.98,3.16 16.34,4.73 25.1,4.73 11.24,0 21.11,-2.37 29.59,-7.12 8.48,-4.75 15.42,-10.96 20.81,-18.68 5.39,-7.71 9.43,-16.16 12.14,-25.39 2.72,-9.23 4.07,-17.67 4.07,-25.34zm-67.3 84.28c-12.95,0 -24.85,-1.94 -35.75,-5.81 -10.89,-3.87 -20.19,-9.47 -27.89,-16.8 -7.72,-7.32 -13.67,-16.11 -17.85,-26.36 -2.09,-5.17 -3.65,-10.46 -4.65,-15.89 -1.01,-5.43 -1.51,-11.34 -1.51,-17.71 0,-12.45 2.2,-23.85 6.63,-34.17 4.41,-10.32 10.73,-19.21 18.94,-26.65 7.91,-7.14 17.19,-12.66 27.84,-16.57 10.65,-3.91 22.23,-5.87 34.7,-5.87 11.47,0 22.63,1.58 33.48,4.72 10.85,3.16 20.52,8 29,14.52 8.49,6.54 15.24,14.87 20.23,25.01 5,10.14 7.5,21.96 7.5,35.47 0,16.86 -3.83,31.83 -11.5,44.88 -7.67,13.06 -18.45,23.19 -32.32,30.41 -13.88,7.21 -29.49,10.82 -46.85,10.82z"/>
  <path class="fil0" d="M595.49 56.08l0 148.85 -4.28 -0.34c-1.39,0 -2.34,-0.08 -2.89,-0.24l-3.23 -0.11 -4.85 0.23 -5.67 0.46 0 -148.85c-16.43,0 -33.79,0.91 -52.08,2.74l0.47 -3.76 0.23 -3.19 -0.12 -2.28 -0.23 -1.83 -0.35 -2.96 122.76 0 -0.47 4.22 -0.23 2.85 0.23 2.84 0.47 4.11 -23.02 -1.94c-3.02,0 -6.28,-0.07 -9.77,-0.22 -8.83,-0.39 -14.49,-0.58 -16.97,-0.58z"/>
  <path class="fil0" d="M828.71 111.81l0 -67 6.05 0.45 4.41 0.23 4.18 -0.23 6.28 -0.45 0 159.66 -4.3 -0.34c-1.32,0 -2.24,-0.07 -2.79,-0.22l-3.37 -0.11 -3.6 0.11 -3.03 0.22 -3.83 0.34 0 -80.23 -16.75 -0.46 -19.44 -0.79 -13.85 0 -13.98 0c-2.32,0 -5.8,0.13 -10.46,0.4 -4.66,0.26 -7.68,0.39 -9.08,0.39l-16.76 0.46 0 80.23 -4.28 -0.34c-1.39,0 -2.36,-0.07 -2.89,-0.22l-3.34 -0.11 -4.75 0.22 -5.66 0.45 0 -159.66 6.01 0.45 4.4 0.23 4.15 -0.23 6.36 -0.45 0 67 50.28 1.15c7.13,-0.3 15.53,-0.58 25.19,-0.8 9.66,-0.23 17.94,-0.35 24.85,-0.35z"/>
  <path class="fil0" d="M1008.52 131.65l-26.34 -59.62 -25.88 59.62 52.22 0zm-17.74 -90.27l71.37 163.09 -5 -0.34 -1.39 0c-0.39,0 -1.04,-0.07 -1.98,-0.23l-3.94 -0.11 -5.94 0.22 -6.75 0.46c-4.1,-11.7 -8.17,-22.64 -12.2,-32.82 -4.03,-10.18 -8.29,-20.25 -12.79,-30.19l-60.45 0 -9.33 22.99 -7.66 20.06c-2.63,7.23 -4.84,13.88 -6.61,19.96l-3.61 -0.34c-1.15,0 -1.97,-0.07 -2.43,-0.23l-2.79 -0.11 -2.89 0.11 -2.34 0.23 -3.01 0.34 74.28 -163.09 5.46 0z"/>
  <path class="fil0" d="M1144.03 44.8l0 148.05c1.54,0 7.96,-0.16 19.23,-0.46 11.29,-0.3 19.24,-0.45 23.89,-0.45 2.79,0 6.24,-0.27 10.34,-0.8l12.33 -1.37 -0.47 4.21 -0.23 2.86 0.23 2.85 0.47 4.1 -86.72 0 0 -158.99 6.05 0.46 4.41 0.23 4.3 -0.23 6.17 -0.46z"/>
  <path class="fil0" d="M162.04 1.47c4.42,2.77 11.3,6.23 20.42,7.35 19.95,2.47 31.13,-8.61 51.04,-8.82 9.17,-0.09 22.06,2.1 37.77,12.5 -22.17,-4.69 -37.77,-3.1 -47.98,-0.73 -14.45,3.33 -22.02,9.14 -35.73,7.35 -2.21,-0.29 -13.32,-1.75 -20.41,-8.83 -3.36,-3.34 -4.6,-6.72 -5.11,-8.82z"/>
 </g>
</svg>
